<?xml version="1.0" encoding="UTF-8"?>
<svg version="1.1" xmlns="http://www.w3.org/2000/svg" width="48" height="48">
<path d="M0 0 C3 0.25 3 0.25 5 2.25 C5.25 5.25 5.25 5.25 5 8.25 C3 10.25 3 10.25 0 10.5 C-3 10.25 -3 10.25 -5 8.25 C-5.25 5.25 -5.25 5.25 -5 2.25 C-3 0.25 -3 0.25 0 0 Z M-2 3.25 C-2 4.57 -2 5.89 -2 7.25 C-0.68 7.25 0.64 7.25 2 7.25 C2 5.93 2 4.61 2 3.25 C0.68 3.25 -0.64 3.25 -2 3.25 Z " fill="#000000" transform="translate(5,35.75)"/>
<path d="M0 0 C3 0.25 3 0.25 5 2.25 C5.25 5.25 5.25 5.25 5 8.25 C3 10.25 3 10.25 0 10.5 C-3 10.25 -3 10.25 -5 8.25 C-5.25 5.25 -5.25 5.25 -5 2.25 C-3 0.25 -3 0.25 0 0 Z M-2 3.25 C-2 4.57 -2 5.89 -2 7.25 C-0.68 7.25 0.64 7.25 2 7.25 C2 5.93 2 4.61 2 3.25 C0.68 3.25 -0.64 3.25 -2 3.25 Z " fill="#000000" transform="translate(5,19.75)"/>
<path d="M0 0 C3 0.25 3 0.25 5 2.25 C5.25 5.25 5.25 5.25 5 8.25 C3 10.25 3 10.25 0 10.5 C-3 10.25 -3 10.25 -5 8.25 C-5.25 5.25 -5.25 5.25 -5 2.25 C-3 0.25 -3 0.25 0 0 Z M-2 3.25 C-2 4.57 -2 5.89 -2 7.25 C-0.68 7.25 0.64 7.25 2 7.25 C2 5.93 2 4.61 2 3.25 C0.68 3.25 -0.64 3.25 -2 3.25 Z " fill="#000000" transform="translate(5,3.75)"/>
<path d="M0 0 C10.56 0 21.12 0 32 0 C32 0.66 32 1.32 32 2 C21.44 2 10.88 2 0 2 C0 1.34 0 0.68 0 0 Z " fill="#000000" transform="translate(16,40)"/>
<path d="M0 0 C10.56 0 21.12 0 32 0 C32 0.66 32 1.32 32 2 C21.44 2 10.88 2 0 2 C0 1.34 0 0.68 0 0 Z " fill="#000000" transform="translate(16,24)"/>
<path d="M0 0 C10.56 0 21.12 0 32 0 C32 0.66 32 1.32 32 2 C21.44 2 10.88 2 0 2 C0 1.34 0 0.68 0 0 Z " fill="#000000" transform="translate(16,8)"/>
</svg>
