<?xml version="1.0" encoding="UTF-8" standalone="no"?>
<svg
   version="1.1"
   viewBox="0 0 2048 338"
   width="3916"
   height="648"
   id="svg12"
   sodipodi:docname="rvgenius-logo-main.svg"
   inkscape:version="1.4.2 (f4327f4, 2025-05-13)"
   xmlns:inkscape="http://www.inkscape.org/namespaces/inkscape"
   xmlns:sodipodi="http://sodipodi.sourceforge.net/DTD/sodipodi-0.dtd"
   xmlns="http://www.w3.org/2000/svg"
   xmlns:svg="http://www.w3.org/2000/svg">
  <defs
     id="defs12" />
  <sodipodi:namedview
     id="namedview12"
     pagecolor="#ffffff"
     bordercolor="#000000"
     borderopacity="0.25"
     inkscape:showpageshadow="2"
     inkscape:pageopacity="0.0"
     inkscape:pagecheckerboard="0"
     inkscape:deskcolor="#d1d1d1"
     inkscape:zoom="0.38"
     inkscape:cx="1727.6316"
     inkscape:cy="880.26316"
     inkscape:window-width="2560"
     inkscape:window-height="1377"
     inkscape:window-x="-8"
     inkscape:window-y="-8"
     inkscape:window-maximized="1"
     inkscape:current-layer="svg12" />
  <path
     transform="translate(81,6)"
     d="m0 0h29l108 1 17 3 15 4 16 7 11 7 10 8 8 9 8 13 5 12 3 11 1 6v34l-3 16-7 19-9 17-8 10-15 15-15 10-16 8-5 1 13 23 9 15 11 20 9 16 12 20 10 18v2h-76l-13-5-8-7-11-18-13-25-10-19-13-24v-3h-57l-3 21-11 68-3 7-4 4-3 1h-71l1-11 8-47 5-33 14-83 6-39 13-78 3-16 5-9 6-5 6-3zm61 64-19 1-4 20-8 53-3 17v6l2 1h60l18-2 12-4 9-5 11-9 8-13 3-9 1-7v-14l-4-13-6-8-9-7-9-4-9-2-14-1z"
     id="path1"
     style="fill:#00afff;fill-opacity:1" />
  <path
     transform="translate(365,6)"
     d="m0 0h21l11 1 4 13 11 57 11 61 10 53 8 43 1 7 2 1 3-9 14-29 13-27 13-28 8-15 13-28 21-42 11-21 8-10 8-8 13-9 8-4 17-5 162-1h28v2l-13 8-9 7-14 12-13 13-13 17-2 2-85 1-16 3-11 6-7 6-8 13-11 23-8 16-11 23-26 52-11 23-18 36-10 22-9 15-9 12-11 8-11 4-6 1h-68l-3-6-12-55-12-60-11-53-7-37-9-43-14-70z"
     id="path2"
     style="fill:#00afff;fill-opacity:1" />
  <path
     d="m0 0h38l29 5 27 9 19 10 14 10 12 11 3 4v5l-11 12-8 8-7 8-10 10h-2l-2 4-5 4-1 2-4-2-12-11-11-7-14-7-14-4-19-2-22 1-15 3-13 5-16 9-10 8-9 9-10 14-6 12-7 19-4 19-1 11v11l2 15 4 15 9 17 11 12 11 8 12 6 13 4 13 2h19l20-3 18-6 7-4 2-6 7-40-64-1-1-2 6-33 4-16 4-6 5-2h123l2 1-1 13-9 55-12 72-4 6-14 10-27 14-16 6-23 6-32 5h-23l-33-5-21-6-16-7-14-8-12-9 2-5 2-6 1-19-1-36-3-10-6-11-8-8-17-10-12-6-7-6 1-25 2-4 13-7 7-8 3-7 1-13-3-12-4-10 8-15 13-19 23-23 18-13 15-9 18-8 18-6 25-5z"
     id="path3"
     style="fill:#f59e0b;fill-opacity:1"
     transform="translate(875)" />
  <path
     transform="translate(1141,94)"
     d="m0 0h20l19 3 13 4 14 7 12 9 11 11 8 14 5 12 4 20v34l-4 20-3 7-3 1h-149l5 17 6 11 9 8 10 5 13 3h18l17-3 17-6 15-9 4-3h2l8 20 10 24-1 5-10 8-17 9-20 7-25 5-8 1h-17l-25-4-16-5-12-5-12-8-10-9-5-5-8-11-7-14-4-13-3-23v-13l2-22 4-18 7-19 10-18 9-12 13-14 13-10 16-9 14-6 18-4zm3 54-12 2-14 7-7 6-9 12-7 15v2h88v-15l-3-10-6-9-7-6-8-3z"
     id="path4"
     style="fill:#f59e0b;fill-opacity:1" />
  <path
     transform="translate(1633,100)"
     d="m0 0h68l-1 13-14 86-5 32-1 8v10l4 13 5 7 7 4 11 2 14-1 11-4 6-4 8-8 6-12 4-13 19-114 3-17 1-2h69l-6 39-10 61-5 31-11 64-6 34-1 2h-57l-4-24-13 12-14 8-11 5-16 4-7 1h-16l-17-3-15-6-9-6-9-9-8-15-4-14-2-18 3-32 8-48 5-32 8-45z"
     id="path5"
     style="fill:#f59e0b;fill-opacity:1" />
  <path
     transform="translate(1412,94)"
     d="m0 0h13l18 3 13 5 11 7 10 10 9 17 4 16 1 14-2 23-8 50-11 66-5 25-1 1h-68l1-9 12-71 7-43 2-11v-18l-4-10-4-6-8-6-8-2h-12l-9 2-9 5-10 9-8 14-5 17-9 53-6 36-7 39-1 1h-69l6-38 12-70 6-36 7-41 8-45 1-1h56l1 1 2 19v6l8-7 13-10 16-9 14-4z"
     id="path6"
     style="fill:#f59e0b;fill-opacity:1" />
  <path
     transform="translate(1958,94)"
     d="m0 0h13l24 3 19 5 20 9 12 8 2 3-11 18-10 16-7 11-11-6-17-8-16-4-9-1h-13l-13 3-6 4-3 7v7l3 5 8 5 16 6 21 6 16 6 16 9 7 6 9 12 5 12 2 10v17l-4 18-5 12-9 13-12 11-13 8-15 6-23 5-17 2h-13l-33-5-14-4-16-6-15-8-11-9 2-6 13-22 11-16 2-4 4 1 11 8 16 8 18 6 7 1h25l10-3 7-4 4-7v-7l-4-7-6-4-19-7-24-7-18-8-11-7-5-4-7-9-6-12-2-8v-25l4-14 7-14 10-13 16-12 16-8 13-4 18-3z"
     id="path7"
     style="fill:#f59e0b;fill-opacity:1" />
  <path
     transform="translate(578,149)"
     d="m0 0h54l14 1 8 3 11 11 9 11 12 14 9 11 9 7 20 10 10 7 6 8 2 6 1 7v36l-2 10-5 6-7 3-23 1-2-1-3-16-7-14-8-8-11-6-9-2h-16l-11 3-10 6-7 7-6 10-3 8-2 12-1 1-106-1 2-6 12-23 14-29 40-80 5-12zm23 15-3 4v36l3 5 11 1 67-1-4-7-12-15-9-12-7-7-5-3-5-1z"
     fill="#010101"
     id="path8" />
  <path
     transform="translate(1534,100)"
     d="m0 0h68l-2 19-11 65-12 72-11 68-2 6-2 1h-67l1-12 11-65 7-41 18-108z"
     id="path9"
     style="fill:#f59e0b;fill-opacity:1" />
  <path
     transform="translate(629,78)"
     d="m0 0h43l10 3 9 6 10 11 10 13 4 9v10l-5 8-5 3-7 1h-115v-3l17-35 9-15 7-6zm-4 18-2 3v16l2 3h49l2-1-1-6-7-11-5-4z"
     fill="#030303"
     id="path10" />
  <path
     d="m0 0h11l13 4 9 6 8 9 4 11v15l-4 10-6 8-8 7-12 5-9 2-12-1-11-4-6-4-8-9-4-11v-13l3-11 7-10 8-7 10-5z"
     id="path11"
     style="fill:#f59e0b;fill-opacity:1"
     transform="translate(1572)" />
  <path
     transform="translate(651,262)"
     d="m0 0h14l10 3 9 7 6 7 4 10 1 6v9l-2 10-6 10-9 7-9 4-6 1h-11l-9-2-11-7-7-9-4-11-1-11 4-13 5-8 10-9 7-3zm4 19-8 3-5 6-2 5v9l5 8 5 4 4 1h8l8-4 6-8v-11l-5-8-6-4z"
     fill="#010101"
     id="path12" />
</svg>
